<?xml version="1.0"?>
<svg xmlns="http://www.w3.org/2000/svg" xmlns:xlink="http://www.w3.org/1999/xlink" xmlns:svgjs="http://svgjs.com/svgjs" version="1.1" width="512" height="512" x="0" y="0" viewBox="0 0 24 24" style="enable-background:new 0 0 512 512" xml:space="preserve"><g><g xmlns="http://www.w3.org/2000/svg" id="_01_align_center" data-name="01 align center"><path d="M24,24H0V3A3,3,0,0,1,3,0H21a3,3,0,0,1,3,3ZM2,22H22V3a1,1,0,0,0-1-1H3A1,1,0,0,0,2,3Z" fill="#ffffff" data-original="#000000"/><path d="M9.333,17.919a1.985,1.985,0,0,1-1.414-.586L3.293,12.707l1.414-1.414,4.626,4.626,9.96-9.959,1.414,1.414-9.959,9.959A1.987,1.987,0,0,1,9.333,17.919Z" fill="#ffffff" data-original="#000000"/></g></g></svg>
